<svg width="14" height="14" viewBox="0 0 14 14" fill="none" xmlns="http://www.w3.org/2000/svg">
<path d="M11.3749 4.375C11.3751 4.06814 11.2945 3.76664 11.1414 3.50073C10.9882 3.23483 10.7678 3.01388 10.5023 2.86003C10.2368 2.70619 9.9355 2.62486 9.62864 2.62421C9.32178 2.62357 9.02014 2.70362 8.75398 2.85634C8.48783 3.00906 8.26651 3.22908 8.11222 3.49434C7.95794 3.75959 7.87611 4.06075 7.87495 4.36761C7.8738 4.67447 7.95335 4.97624 8.10563 5.24265C8.25791 5.50906 8.47756 5.73075 8.74256 5.88547C8.67994 6.68063 8.1935 6.89719 6.69178 7.20946C6.20615 7.31008 5.70932 7.41317 5.25049 7.59036V4.13957C5.58411 3.94695 5.84486 3.64963 5.99228 3.29372C6.1397 2.93781 6.16557 2.5432 6.06586 2.17109C5.96615 1.79898 5.74645 1.47017 5.44082 1.23566C5.13519 1.00114 4.76072 0.874023 4.37549 0.874023C3.99025 0.874023 3.61578 1.00114 3.31016 1.23566C3.00453 1.47017 2.78482 1.79898 2.68512 2.17109C2.58541 2.5432 2.61128 2.93781 2.7587 3.29372C2.90612 3.64963 3.16687 3.94695 3.50049 4.13957V9.86044C3.16737 10.0528 2.90691 10.3496 2.7594 10.7048C2.61188 11.0601 2.58552 11.454 2.6844 11.8258C2.78328 12.1975 3.00189 12.5263 3.30641 12.7613C3.61094 12.9963 3.98441 13.1245 4.36908 13.1259C4.75374 13.1273 5.12816 13.002 5.43443 12.7693C5.7407 12.5365 5.96175 12.2093 6.06339 11.8384C6.16504 11.4674 6.14162 11.0732 5.99675 10.7169C5.85189 10.3605 5.59365 10.0618 5.26197 9.867C5.32733 9.37481 5.69947 9.20173 7.04643 8.92309C7.79647 8.76805 8.57166 8.60755 9.22791 8.18618C10.0209 7.67813 10.4455 6.90704 10.4956 5.89231C10.7627 5.73912 10.9846 5.51817 11.139 5.25176C11.2934 4.98535 11.3748 4.68292 11.3749 4.375ZM4.37494 1.75C4.548 1.75 4.71717 1.80132 4.86107 1.89746C5.00496 1.99361 5.11711 2.13027 5.18334 2.29015C5.24956 2.45004 5.26689 2.62597 5.23313 2.7957C5.19937 2.96544 5.11603 3.12135 4.99366 3.24372C4.87129 3.36609 4.71538 3.44943 4.54565 3.48319C4.37591 3.51695 4.19998 3.49962 4.04009 3.4334C3.88021 3.36717 3.74355 3.25502 3.64741 3.11112C3.55126 2.96723 3.49994 2.79806 3.49994 2.625C3.49994 2.39294 3.59213 2.17038 3.75622 2.00628C3.92032 1.84219 4.14288 1.75 4.37494 1.75ZM4.37494 12.25C4.20188 12.25 4.03271 12.1987 3.88882 12.1025C3.74493 12.0064 3.63277 11.8697 3.56655 11.7099C3.50032 11.55 3.48299 11.374 3.51675 11.2043C3.55052 11.0346 3.63385 10.8787 3.75622 10.7563C3.87859 10.6339 4.0345 10.5506 4.20424 10.5168C4.37397 10.4831 4.5499 10.5004 4.70979 10.5666C4.86968 10.6328 5.00633 10.745 5.10248 10.8889C5.19862 11.0328 5.24994 11.202 5.24994 11.375C5.24994 11.6071 5.15775 11.8296 4.99366 11.9937C4.82957 12.1578 4.60701 12.25 4.37494 12.25ZM9.62494 5.25C9.45188 5.25 9.28271 5.19869 9.13882 5.10254C8.99492 5.00639 8.88277 4.86974 8.81655 4.70985C8.75032 4.54996 8.73299 4.37403 8.76675 4.2043C8.80052 4.03456 8.88385 3.87865 9.00622 3.75628C9.12859 3.63391 9.2845 3.55058 9.45424 3.51681C9.62397 3.48305 9.7999 3.50038 9.95979 3.56661C10.1197 3.63283 10.2563 3.74498 10.3525 3.88888C10.4486 4.03277 10.4999 4.20194 10.4999 4.375C10.4999 4.60707 10.4078 4.82963 10.2437 4.99372C10.0796 5.15782 9.85701 5.25 9.62494 5.25Z" fill="black"/>
</svg>
